<svg width="24" height="24" viewBox="0 0 24 24" fill="none" xmlns="http://www.w3.org/2000/svg">
<path d="M2.2231 12.6115C3.52862 14.2475 7.41214 18.6103 12.0063 18.6103C16.6004 18.6103 20.4839 14.2477 21.7894 12.6115C22.0702 12.2479 22.0702 11.7356 21.7894 11.3887C20.4839 9.7527 16.6004 5.38994 12.0063 5.38994C7.41214 5.37341 3.52862 9.73618 2.2231 11.3722C1.92563 11.7358 1.92563 12.2479 2.2231 12.6115ZM12.0063 8.01751C14.2042 8.01751 15.9724 9.78575 15.9724 11.9837C15.9724 14.1816 14.2042 15.9498 12.0063 15.9498C9.80835 15.9498 8.04011 14.1816 8.04011 11.9837C8.04011 9.78575 9.80835 8.01751 12.0063 8.01751Z" fill="#BDBCC8"/>
<path d="M12.0063 13.9669C13.1015 13.9669 13.9893 13.079 13.9893 11.9838C13.9893 10.8886 13.1015 10.0007 12.0063 10.0007C10.911 10.0007 10.0232 10.8886 10.0232 11.9838C10.0232 13.079 10.911 13.9669 12.0063 13.9669Z" fill="#BDBCC8"/>
</svg>
